<svg style="height: 512px; width: 512px;" xmlns="http://www.w3.org/2000/svg" viewBox="0 0 512 512"><circle cx="256" cy="256" r="256" fill="#0a113e" fill-opacity="1"></circle><g class="" style="" transform="translate(0,0)"><path d="M196 16a30 30 0 0 0-30 30v120H46a30 30 0 0 0-30 30v120a30 30 0 0 0 30 30h120v120a30 30 0 0 0 30 30h120a30 30 0 0 0 30-30V346h120a30 30 0 0 0 30-30V196a30 30 0 0 0-30-30H346V46a30 30 0 0 0-30-30H196z" fill="#fff" fill-opacity="1" transform="translate(128, 128) scale(0.5, 0.5) rotate(0, 256, 256) skewX(0) skewY(0)"></path></g><g font-family="&quot;Times New Roman&quot;, Times, serif" font-size="120" font-style="normal" font-weight="normal" text-anchor="middle" text-decoration=" rgba(211, 205, 33, 1)" class="" style="" transform="translate(259,470)"><g transform="translate(0, 0) scale(0.9, 0.9) rotate(0, 0, 0) skewX(0) skewY(0)"><text stroke="rgba(10, 17, 62, 1)" stroke-width="30"><tspan x="0" y="0">n/a</tspan></text><text fill="rgba(211, 205, 33, 1)"><tspan x="0" y="0">n/a</tspan></text></g></g></svg>